<mxfile host="app.diagrams.net" agent="Mozilla/5.0 (Macintosh; Intel Mac OS X 10_15_7) AppleWebKit/537.36 (KHTML, like Gecko) Chrome/131.0.0.0 Safari/537.36" version="25.0.3">
  <diagram name="Page-1" id="2c0d36ab-eaac-3732-788b-9136903baeff">
    <mxGraphModel dx="1735" dy="996" grid="1" gridSize="10" guides="1" tooltips="1" connect="1" arrows="1" fold="1" page="1" pageScale="1.5" pageWidth="1169" pageHeight="827" background="none" math="0" shadow="0">
      <root>
        <mxCell id="0" />
        <mxCell id="1" parent="0" />
        <mxCell id="5cLiPXofDN_hrxJObZ__-139" value="" style="fillColor=#0050ef;strokeColor=#001DBC;opacity=30;fontColor=#ffffff;" vertex="1" parent="1">
          <mxGeometry x="748" y="60" width="522" height="190" as="geometry" />
        </mxCell>
        <mxCell id="5cLiPXofDN_hrxJObZ__-137" value="" style="fillColor=#d80073;strokeColor=#A50040;opacity=30;fontColor=#ffffff;" vertex="1" parent="1">
          <mxGeometry x="864" y="425.5" width="228" height="389" as="geometry" />
        </mxCell>
        <mxCell id="5cLiPXofDN_hrxJObZ__-125" style="edgeStyle=orthogonalEdgeStyle;rounded=0;orthogonalLoop=1;jettySize=auto;html=1;exitX=0.5;exitY=0;exitDx=0;exitDy=0;" edge="1" parent="1" source="123" target="5cLiPXofDN_hrxJObZ__-123">
          <mxGeometry relative="1" as="geometry" />
        </mxCell>
        <mxCell id="123" value="" style="fillColor=#AE4132;strokeColor=none;opacity=30;" parent="1" vertex="1">
          <mxGeometry x="747" y="276.5" width="210" height="99.99999999999994" as="geometry" />
        </mxCell>
        <mxCell id="120" value="" style="fillColor=#F2931E;strokeColor=none;opacity=30;" parent="1" vertex="1">
          <mxGeometry x="590" y="420" width="227" height="391" as="geometry" />
        </mxCell>
        <mxCell id="108" value="" style="fillColor=#12AAB5;strokeColor=none;opacity=30;" parent="1" vertex="1">
          <mxGeometry x="230" y="420" width="324" height="561" as="geometry" />
        </mxCell>
        <mxCell id="2" value="AlugAE Home Page" style="rounded=1;fillColor=#23445D;gradientColor=none;strokeColor=none;fontColor=#FFFFFF;fontStyle=1;fontFamily=Tahoma;fontSize=14" parent="1" vertex="1">
          <mxGeometry x="758" y="286.5" width="190" height="80" as="geometry" />
        </mxCell>
        <mxCell id="4" value="Admin pages" style="rounded=1;fillColor=#23445D;gradientColor=none;strokeColor=none;fontColor=#FFFFFF;fontStyle=1;fontFamily=Tahoma;fontSize=14" parent="1" vertex="1">
          <mxGeometry x="1175.9999999999998" y="436.5" width="190" height="80" as="geometry" />
        </mxCell>
        <mxCell id="9" value="" style="edgeStyle=elbowEdgeStyle;elbow=vertical;strokeWidth=2;rounded=0" parent="1" source="2" target="4" edge="1">
          <mxGeometry x="337" y="215.5" width="100" height="100" as="geometry">
            <mxPoint x="337" y="416.5" as="sourcePoint" />
            <mxPoint x="437" y="316.5" as="targetPoint" />
          </mxGeometry>
        </mxCell>
        <mxCell id="10" value="Tenant pages" style="rounded=1;fillColor=#23445D;gradientColor=none;strokeColor=none;fontColor=#FFFFFF;fontStyle=1;fontFamily=Tahoma;fontSize=14" parent="1" vertex="1">
          <mxGeometry x="883" y="434.5" width="190" height="80" as="geometry" />
        </mxCell>
        <mxCell id="12" value="Sub Landlord pages" style="rounded=1;fillColor=#23445D;gradientColor=none;strokeColor=none;fontColor=#FFFFFF;fontStyle=1;fontFamily=Tahoma;fontSize=14" parent="1" vertex="1">
          <mxGeometry x="614.9999999999999" y="436.5" width="190" height="80" as="geometry" />
        </mxCell>
        <mxCell id="13" value="Landlord pages" style="rounded=1;fillColor=#23445D;gradientColor=none;strokeColor=none;fontColor=#FFFFFF;fontStyle=1;fontFamily=Tahoma;fontSize=14" parent="1" vertex="1">
          <mxGeometry x="287" y="436.5" width="190" height="80" as="geometry" />
        </mxCell>
        <mxCell id="14" value="Main Dashboard" style="rounded=1;fillColor=#23445D;gradientColor=none;strokeColor=none;fontColor=#FFFFFF;fontStyle=1;fontFamily=Tahoma;fontSize=14" parent="1" vertex="1">
          <mxGeometry x="237" y="556.5" width="130" height="60" as="geometry" />
        </mxCell>
        <mxCell id="16" value="Manage &#xa;properties" style="rounded=1;fillColor=#23445D;gradientColor=none;strokeColor=none;fontColor=#FFFFFF;fontStyle=1;fontFamily=Tahoma;fontSize=14" parent="1" vertex="1">
          <mxGeometry x="417" y="556.5" width="130" height="60" as="geometry" />
        </mxCell>
        <mxCell id="17" value="Manage &#xa;Tenants" style="rounded=1;fillColor=#23445D;gradientColor=none;strokeColor=none;fontColor=#FFFFFF;fontStyle=1;fontFamily=Tahoma;fontSize=14" parent="1" vertex="1">
          <mxGeometry x="417" y="646.5" width="130" height="60" as="geometry" />
        </mxCell>
        <mxCell id="18" value="Generate reports" style="rounded=1;fillColor=#23445D;gradientColor=none;strokeColor=none;fontColor=#FFFFFF;fontStyle=1;fontFamily=Tahoma;fontSize=14" parent="1" vertex="1">
          <mxGeometry x="417" y="736.5" width="130" height="60" as="geometry" />
        </mxCell>
        <mxCell id="19" value="Manage&#xa; subLords" style="rounded=1;fillColor=#23445D;gradientColor=none;strokeColor=none;fontColor=#FFFFFF;fontStyle=1;fontFamily=Tahoma;fontSize=14" parent="1" vertex="1">
          <mxGeometry x="417" y="826.5" width="130" height="60" as="geometry" />
        </mxCell>
        <mxCell id="20" value="Assign Tasks" style="rounded=1;fillColor=#23445D;gradientColor=none;strokeColor=none;fontColor=#FFFFFF;fontStyle=1;fontFamily=Tahoma;fontSize=14" parent="1" vertex="1">
          <mxGeometry x="417" y="916.5" width="130" height="60" as="geometry" />
        </mxCell>
        <mxCell id="29" value="Assignes tasks" style="rounded=1;fillColor=#23445D;gradientColor=none;strokeColor=none;fontColor=#FFFFFF;fontStyle=1;fontFamily=Tahoma;fontSize=14" parent="1" vertex="1">
          <mxGeometry x="645" y="556.5" width="130" height="60" as="geometry" />
        </mxCell>
        <mxCell id="30" value="Manage &#xa;Tenants" style="rounded=1;fillColor=#23445D;gradientColor=none;strokeColor=none;fontColor=#FFFFFF;fontStyle=1;fontFamily=Tahoma;fontSize=14" parent="1" vertex="1">
          <mxGeometry x="645" y="646.5" width="130" height="60" as="geometry" />
        </mxCell>
        <mxCell id="31" value="Manage &#xa;properties" style="rounded=1;fillColor=#23445D;gradientColor=none;strokeColor=none;fontColor=#FFFFFF;fontStyle=1;fontFamily=Tahoma;fontSize=14" parent="1" vertex="1">
          <mxGeometry x="645" y="736.5" width="130" height="60" as="geometry" />
        </mxCell>
        <mxCell id="41" value="Property Hub" style="rounded=1;fillColor=#23445D;gradientColor=none;strokeColor=none;fontColor=#FFFFFF;fontStyle=1;fontFamily=Tahoma;fontSize=14" parent="1" vertex="1">
          <mxGeometry x="913" y="554.5" width="130" height="60" as="geometry" />
        </mxCell>
        <mxCell id="42" value="Payment History" style="rounded=1;fillColor=#23445D;gradientColor=none;strokeColor=none;fontColor=#FFFFFF;fontStyle=1;fontFamily=Tahoma;fontSize=14" parent="1" vertex="1">
          <mxGeometry x="913" y="644.5" width="130" height="60" as="geometry" />
        </mxCell>
        <mxCell id="43" value="Complains" style="rounded=1;fillColor=#23445D;gradientColor=none;strokeColor=none;fontColor=#FFFFFF;fontStyle=1;fontFamily=Tahoma;fontSize=14" parent="1" vertex="1">
          <mxGeometry x="913" y="734.5" width="130" height="60" as="geometry" />
        </mxCell>
        <mxCell id="59" value="" style="edgeStyle=elbowEdgeStyle;elbow=vertical;strokeWidth=2;rounded=0" parent="1" source="2" target="12" edge="1">
          <mxGeometry x="347" y="225.5" width="100" height="100" as="geometry">
            <mxPoint x="861.9999999999999" y="376.5" as="sourcePoint" />
            <mxPoint x="1466.9999999999998" y="446.5" as="targetPoint" />
          </mxGeometry>
        </mxCell>
        <mxCell id="61" value="" style="edgeStyle=elbowEdgeStyle;elbow=vertical;strokeWidth=2;rounded=0" parent="1" source="2" target="13" edge="1">
          <mxGeometry x="-23" y="135.5" width="100" height="100" as="geometry">
            <mxPoint x="-23" y="336.5" as="sourcePoint" />
            <mxPoint x="77" y="236.5" as="targetPoint" />
          </mxGeometry>
        </mxCell>
        <mxCell id="62" value="" style="edgeStyle=elbowEdgeStyle;elbow=vertical;strokeWidth=2;rounded=0" parent="1" source="13" target="14" edge="1">
          <mxGeometry x="-23" y="135.5" width="100" height="100" as="geometry">
            <mxPoint x="157" y="336.5" as="sourcePoint" />
            <mxPoint x="257" y="236.5" as="targetPoint" />
          </mxGeometry>
        </mxCell>
        <mxCell id="64" value="" style="edgeStyle=elbowEdgeStyle;elbow=horizontal;strokeWidth=2;rounded=0" parent="1" source="13" target="16" edge="1">
          <mxGeometry x="-23" y="135.5" width="100" height="100" as="geometry">
            <mxPoint x="157" y="336.5" as="sourcePoint" />
            <mxPoint x="257" y="236.5" as="targetPoint" />
            <Array as="points">
              <mxPoint x="382" y="536.5" />
            </Array>
          </mxGeometry>
        </mxCell>
        <mxCell id="65" value="" style="edgeStyle=elbowEdgeStyle;elbow=horizontal;strokeWidth=2;rounded=0" parent="1" source="13" target="17" edge="1">
          <mxGeometry x="-23" y="135.5" width="100" height="100" as="geometry">
            <mxPoint x="157" y="336.5" as="sourcePoint" />
            <mxPoint x="257" y="236.5" as="targetPoint" />
            <Array as="points">
              <mxPoint x="382" y="576.5" />
            </Array>
          </mxGeometry>
        </mxCell>
        <mxCell id="66" value="" style="edgeStyle=elbowEdgeStyle;elbow=horizontal;strokeWidth=2;rounded=0" parent="1" source="13" target="18" edge="1">
          <mxGeometry x="-23" y="135.5" width="100" height="100" as="geometry">
            <mxPoint x="157" y="336.5" as="sourcePoint" />
            <mxPoint x="257" y="236.5" as="targetPoint" />
            <Array as="points">
              <mxPoint x="382" y="626.5" />
            </Array>
          </mxGeometry>
        </mxCell>
        <mxCell id="67" value="" style="edgeStyle=elbowEdgeStyle;elbow=horizontal;strokeWidth=2;rounded=0" parent="1" source="13" target="19" edge="1">
          <mxGeometry x="-23" y="135.5" width="100" height="100" as="geometry">
            <mxPoint x="157" y="336.5" as="sourcePoint" />
            <mxPoint x="257" y="236.5" as="targetPoint" />
            <Array as="points">
              <mxPoint x="382" y="676.5" />
            </Array>
          </mxGeometry>
        </mxCell>
        <mxCell id="68" value="" style="edgeStyle=elbowEdgeStyle;elbow=horizontal;strokeWidth=2;rounded=0" parent="1" source="13" target="20" edge="1">
          <mxGeometry x="-23" y="135.5" width="100" height="100" as="geometry">
            <mxPoint x="157" y="336.5" as="sourcePoint" />
            <mxPoint x="257" y="236.5" as="targetPoint" />
            <Array as="points">
              <mxPoint x="382" y="716.5" />
            </Array>
          </mxGeometry>
        </mxCell>
        <mxCell id="73" value="" style="edgeStyle=elbowEdgeStyle;elbow=horizontal;strokeWidth=2;rounded=0" parent="1" source="29" target="30" edge="1">
          <mxGeometry x="-23" y="135.5" width="100" height="100" as="geometry">
            <mxPoint x="30" y="336.5" as="sourcePoint" />
            <mxPoint x="130" y="236.5" as="targetPoint" />
            <Array as="points">
              <mxPoint x="620" y="636.5" />
            </Array>
          </mxGeometry>
        </mxCell>
        <mxCell id="74" value="" style="edgeStyle=elbowEdgeStyle;elbow=horizontal;strokeWidth=2;rounded=0" parent="1" source="29" target="31" edge="1">
          <mxGeometry x="-23" y="135.5" width="100" height="100" as="geometry">
            <mxPoint x="30" y="336.5" as="sourcePoint" />
            <mxPoint x="130" y="236.5" as="targetPoint" />
            <Array as="points">
              <mxPoint x="620" y="676.5" />
            </Array>
          </mxGeometry>
        </mxCell>
        <mxCell id="82" value="" style="edgeStyle=elbowEdgeStyle;elbow=horizontal;strokeWidth=2;rounded=0" parent="1" source="41" target="42" edge="1">
          <mxGeometry x="-23" y="135.5" width="100" height="100" as="geometry">
            <mxPoint x="-87" y="334.5" as="sourcePoint" />
            <mxPoint x="13" y="234.5" as="targetPoint" />
            <Array as="points">
              <mxPoint x="893" y="634.5" />
            </Array>
          </mxGeometry>
        </mxCell>
        <mxCell id="83" value="" style="edgeStyle=elbowEdgeStyle;elbow=horizontal;strokeWidth=2;rounded=0" parent="1" source="41" target="43" edge="1">
          <mxGeometry x="-23" y="135.5" width="100" height="100" as="geometry">
            <mxPoint x="-87" y="334.5" as="sourcePoint" />
            <mxPoint x="13" y="234.5" as="targetPoint" />
            <Array as="points">
              <mxPoint x="893" y="684.5" />
            </Array>
          </mxGeometry>
        </mxCell>
        <mxCell id="101" value="" style="edgeStyle=elbowEdgeStyle;elbow=vertical;strokeWidth=2;rounded=0" parent="1" source="12" target="29" edge="1">
          <mxGeometry x="-23" y="135.5" width="100" height="100" as="geometry">
            <mxPoint x="30" y="336.5" as="sourcePoint" />
            <mxPoint x="130" y="236.5" as="targetPoint" />
          </mxGeometry>
        </mxCell>
        <mxCell id="103" value="" style="edgeStyle=elbowEdgeStyle;elbow=vertical;strokeWidth=2;rounded=0" parent="1" source="10" target="41" edge="1">
          <mxGeometry x="-23" y="135.5" width="100" height="100" as="geometry">
            <mxPoint x="-87" y="334.5" as="sourcePoint" />
            <mxPoint x="13" y="234.5" as="targetPoint" />
          </mxGeometry>
        </mxCell>
        <mxCell id="5cLiPXofDN_hrxJObZ__-123" value="Authentication Pages" style="rounded=1;fillColor=#23445D;gradientColor=none;strokeColor=none;fontColor=#FFFFFF;fontStyle=1;fontFamily=Tahoma;fontSize=14" vertex="1" parent="1">
          <mxGeometry x="757.9999999999999" y="80" width="190" height="80" as="geometry" />
        </mxCell>
        <mxCell id="5cLiPXofDN_hrxJObZ__-126" value="" style="edgeStyle=elbowEdgeStyle;elbow=vertical;strokeWidth=2;rounded=0;exitX=0.993;exitY=0.354;exitDx=0;exitDy=0;exitPerimeter=0;" edge="1" parent="1" source="5cLiPXofDN_hrxJObZ__-123">
          <mxGeometry x="-23" y="135.5" width="100" height="100" as="geometry">
            <mxPoint x="970" y="110" as="sourcePoint" />
            <mxPoint x="1070" y="110" as="targetPoint" />
            <Array as="points">
              <mxPoint x="1040" y="110" />
            </Array>
          </mxGeometry>
        </mxCell>
        <mxCell id="5cLiPXofDN_hrxJObZ__-127" value="SignIn" style="rounded=1;fillColor=#23445D;gradientColor=none;strokeColor=none;fontColor=#FFFFFF;fontStyle=1;fontFamily=Tahoma;fontSize=14" vertex="1" parent="1">
          <mxGeometry x="1070" y="70" width="190" height="80" as="geometry" />
        </mxCell>
        <mxCell id="5cLiPXofDN_hrxJObZ__-128" value="SignUp" style="rounded=1;fillColor=#23445D;gradientColor=none;strokeColor=none;fontColor=#FFFFFF;fontStyle=1;fontFamily=Tahoma;fontSize=14" vertex="1" parent="1">
          <mxGeometry x="1070" y="160" width="190" height="80" as="geometry" />
        </mxCell>
        <mxCell id="5cLiPXofDN_hrxJObZ__-129" value="" style="edgeStyle=elbowEdgeStyle;elbow=vertical;strokeWidth=2;rounded=0;entryX=0;entryY=0.5;entryDx=0;entryDy=0;" edge="1" parent="1" target="5cLiPXofDN_hrxJObZ__-128">
          <mxGeometry x="-23" y="135.5" width="100" height="100" as="geometry">
            <mxPoint x="1000" y="110" as="sourcePoint" />
            <mxPoint x="1080" y="120" as="targetPoint" />
            <Array as="points">
              <mxPoint x="1040" y="200" />
            </Array>
          </mxGeometry>
        </mxCell>
        <mxCell id="5cLiPXofDN_hrxJObZ__-136" value="" style="edgeStyle=elbowEdgeStyle;elbow=vertical;strokeWidth=2;rounded=0;entryX=0.5;entryY=0;entryDx=0;entryDy=0;" edge="1" parent="1" target="10">
          <mxGeometry x="347" y="225.5" width="100" height="100" as="geometry">
            <mxPoint x="863" y="377" as="sourcePoint" />
            <mxPoint x="667" y="447" as="targetPoint" />
            <Array as="points">
              <mxPoint x="950" y="401" />
            </Array>
          </mxGeometry>
        </mxCell>
      </root>
    </mxGraphModel>
  </diagram>
</mxfile>
